# xmcd
#
# Track frame offsets: 
#        150
#        12993
#        22740
#        34083
#        46842
#        56303
#        65721
#        77202
#        85892
#        98734
#        109496
#        122618
#        133821
#        146039
#        157524
#        169234
#        180728
#        191854
#        201001
#        211752
#        224003
#        238379
#        248444
#        261318
#        272342
#        284512
#        298521
#        312255
#
# Disc length: 4310 seconds
#
# Revision: 1
# Processed by: cddbd v1.5.2PL0 Copyright (c) Steve Scherf et al.
# Submitted via: ExactAudioCopy v0.99pb5
#
DISCID=9b10d41c
DTITLE=Various Artist - More Country Hits
DYEAR=2016
DGENRE=Country
TTITLE0=Jim Reeves - Four walls
TTITLE1=Eddy Arnold - Chip off the old block
TTITLE2=Hank Locklin - Send me the pillow you dream on
TTITLE3=Johnny Horton - North to Alaska
TTITLE4=Johnny Cash - I got stripes
TTITLE5=Faron Young - Back track
TTITLE6=Patti Page - Go on home
TTITLE7=Don Gibson - Blue, blue day
TTITLE8=Carl Perkins - Boppin' the blues
TTITLE9=George Jones - Who shot Sam
TTITLE10=Leroy Van Dyke - The auctioneer
TTITLE11=Stonewall Jackson - Mary don't you weep
TTITLE12=Bonnie Guitar - Dark moon
TTITLE13=Hank Snow - Rockin', Rollin' ôcean
TTITLE14=Ray Price - My shoes keep walking back to you
TTITLE15=Sonny James - Jenny Lou
TTITLE16=Claude King - Big river, big man
TTITLE17=Skeeter Davis - I'm saving my love
TTITLE18=Hawkshaw Hawkins - Soldier's joy
TTITLE19=Bobby Bare - 500 miles away from home
TTITLE20=Tex Ritter - I dreamed of a hill-billy heaven
TTITLE21=Dave Dudley - Cowboy boots
TTITLE22=Bill Anderson - 8 x 10
TTITLE23=Jimmy Dean - Little black book
TTITLE24=Carl Smith - Your name is beautiful
TTITLE25=Jerry Lee Lewis - I'll make it all up to you
TTITLE26=Ferlin Husky - The waltz you saved for me
TTITLE27=Marty Robbins - Singing the blues
EXTD=
EXTT0=
EXTT1=
EXTT2=
EXTT3=
EXTT4=
EXTT5=
EXTT6=
EXTT7=
EXTT8=
EXTT9=
EXTT10=
EXTT11=
EXTT12=
EXTT13=
EXTT14=
EXTT15=
EXTT16=
EXTT17=
EXTT18=
EXTT19=
EXTT20=
EXTT21=
EXTT22=
EXTT23=
EXTT24=
EXTT25=
EXTT26=
EXTT27=
PLAYORDER=
